<?xml version="1.0" encoding="UTF-8" standalone="no"?>
<!DOCTYPE svg PUBLIC "-//W3C//DTD SVG 1.1//EN" "http://www.w3.org/Graphics/SVG/1.1/DTD/svg11.dtd">
<svg xmlns="http://www.w3.org/2000/svg" xmlns:xlink="http://www.w3.org/1999/xlink" version="1.1" width="235.196pt" height="187.711pt" viewBox="0 0 235.196 187.711">
<clipPath id="cp0">
<path transform="matrix(1,0,0,-1,28.359,264.51)" d="M 0 90.05577 L 194.27437 90.05577 L 194.27437 251.44605 L 0 251.44605 Z "/>
</clipPath>
<g clip-path="url(#cp0)">
<path transform="matrix(1,0,0,-1,28.359,264.51)" stroke-width="1" stroke-linecap="butt" stroke-miterlimit="10" stroke-linejoin="miter" fill="none" stroke="#ecd9d9" d="M 0 0 L 8.09476 9.74612 L 16.18951 19.49226 L 24.28429 29.2384 L 32.37906 38.98456 L 40.47383 48.7307 L 48.56859 58.47682 L 56.66336 68.22296 L 64.75812 77.9691 L 72.85289 87.71524 L 80.94765 97.46138 L 89.04242 107.2075 L 97.13718 116.95364 L 105.23195 126.6997 L 113.3267 136.44583 L 121.42148 146.19213 L 129.51624 155.93825 L 137.61101 165.68437 L 145.70578 175.43048 L 153.80055 185.17662 L 161.89531 194.92273 L 169.99008 204.66886 L 178.08484 214.41498 L 186.17961 224.16109 L 194.27437 233.90721 "/>
<path transform="matrix(1,0,0,-1,28.359,264.51)" stroke-width="1" stroke-linecap="butt" stroke-miterlimit="10" stroke-linejoin="miter" fill="none" stroke="#d6adad" d="M 0 17.32254 L 8.09476 25.62515 L 16.18951 33.92773 L 24.28429 42.23033 L 32.37906 50.53294 L 40.47383 58.83554 L 48.56859 67.13815 L 56.66336 75.44073 L 64.75812 83.74333 L 72.85289 92.04591 L 80.94765 100.34853 L 89.04242 108.65112 L 97.13718 116.95372 L 105.23195 125.25626 L 113.3267 133.55883 L 121.42148 141.86157 L 129.51624 150.16416 L 137.61101 158.46672 L 145.70578 166.76932 L 153.80055 175.07189 L 161.89531 183.37448 L 169.99008 191.67707 L 178.08484 199.97963 L 186.17961 208.28223 L 194.27437 216.5848 "/>
<path transform="matrix(1,0,0,-1,28.359,264.51)" stroke-width="1" stroke-linecap="butt" stroke-miterlimit="10" stroke-linejoin="miter" fill="none" stroke="#c18282" d="M 0 36.4204 L 8.09476 43.13152 L 16.18951 49.84262 L 24.28429 56.55376 L 32.37906 63.26488 L 40.47383 69.976 L 48.56859 76.68712 L 56.66336 83.39822 L 64.75812 90.10936 L 72.85289 96.82047 L 80.94765 103.53157 L 89.04242 110.2427 L 97.13718 116.95381 L 105.23195 123.6649 L 113.3267 130.37599 L 121.42148 137.08722 L 129.51624 143.79834 L 137.61101 150.50943 L 145.70578 157.22054 L 153.80055 163.93164 L 161.89531 170.64275 L 169.99008 177.35385 L 178.08484 184.06496 L 186.17961 190.77606 L 194.27437 197.48719 "/>
<path transform="matrix(1,0,0,-1,28.359,264.51)" stroke-width="1" stroke-linecap="butt" stroke-miterlimit="10" stroke-linejoin="miter" fill="none" stroke="#ab5757" d="M 0 54.3885 L 8.09476 59.60228 L 16.18951 64.81606 L 24.28429 70.02985 L 32.37906 75.24362 L 40.47383 80.45743 L 48.56859 85.6712 L 56.66336 90.88498 L 64.75812 96.09875 L 72.85289 101.31253 L 80.94765 106.5263 L 89.04242 111.7401 L 97.13718 116.95387 L 105.23195 122.1676 L 113.3267 127.38138 L 121.42148 132.59523 L 129.51624 137.809 L 137.61101 143.0228 L 145.70578 148.23656 L 153.80055 153.45034 L 161.89531 158.6641 L 169.99008 163.87787 L 178.08484 169.09163 L 186.17961 174.3054 L 194.27437 179.51917 "/>
<path transform="matrix(1,0,0,-1,28.359,264.51)" stroke-width="1" stroke-linecap="butt" stroke-miterlimit="10" stroke-linejoin="miter" fill="none" stroke="#952b2b" d="M 0 72.14143 L 8.09476 75.87582 L 16.18951 79.6102 L 24.28429 83.34457 L 32.37906 87.07896 L 40.47383 90.81332 L 48.56859 94.54771 L 56.66336 98.28209 L 64.75812 102.01646 L 72.85289 105.75084 L 80.94765 109.48521 L 89.04242 113.2196 L 97.13718 116.95396 L 105.23195 120.68832 L 113.3267 124.42268 L 121.42148 128.15712 L 129.51624 131.8915 L 137.61101 135.62587 L 145.70578 139.36025 L 153.80055 143.0946 L 161.89531 146.82897 L 169.99008 150.56336 L 178.08484 154.29772 L 186.17961 158.03209 L 194.27437 161.76647 "/>
<path transform="matrix(1,0,0,-1,28.359,264.51)" stroke-width="1" stroke-linecap="butt" stroke-dasharray="2.98883,2.98883" stroke-miterlimit="10" stroke-linejoin="miter" fill="none" stroke="#000000" d="M 97.13759 90.05577 L 97.13759 116.95415 "/>
<path transform="matrix(1,0,0,-1,28.359,264.51)" stroke-width="1" stroke-linecap="butt" stroke-dasharray="2.98883,2.98883" stroke-miterlimit="10" stroke-linejoin="miter" fill="none" stroke="#000000" d="M 0 116.95415 L 97.13759 116.95415 "/>
<path transform="matrix(1,0,0,-1,28.359,264.51)" stroke-width="1" stroke-linecap="butt" stroke-dasharray="2.98883,2.98883" stroke-miterlimit="10" stroke-linejoin="miter" fill="none" stroke="#000000" d="M 0 170.75092 L 161.83124 170.75092 "/>
<path transform="matrix(1,0,0,-1,28.359,264.51)" stroke-width="1" stroke-linecap="butt" stroke-dasharray="2.98883,2.98883" stroke-miterlimit="10" stroke-linejoin="miter" fill="none" stroke="#000000" d="M 161.83124 90.05577 L 161.83124 170.75092 "/>
<path transform="matrix(1,0,0,-1,28.359,264.51)" stroke-width="1.19553" stroke-linecap="butt" stroke-miterlimit="10" stroke-linejoin="miter" fill="none" stroke="#000080" d="M 0 103.50496 C 0 103.50496 5.36017 103.88434 7.41887 104.03862 C 9.47755 104.1929 12.77904 104.4496 14.83775 104.61694 C 16.89645 104.78429 20.19794 105.06267 22.25665 105.24475 C 24.31535 105.42682 27.61684 105.73032 29.67554 105.9293 C 31.73422 106.1283 35.0357 106.46075 37.0944 106.67897 C 39.15309 106.89717 42.45457 107.26172 44.51329 107.50206 C 46.57199 107.7424 49.87346 108.14497 51.93217 108.41121 C 53.99088 108.67746 57.29236 109.12456 59.35107 109.42099 C 61.40979 109.71742 64.71124 110.21571 66.76994 110.54776 C 68.82864 110.8798 72.13011 111.43974 74.18883 111.81413 C 76.24754 112.18852 79.549 112.82066 81.60771 113.2462 C 83.66643 113.67174 86.96788 114.39304 89.0266 114.88109 C 91.08531 115.36913 94.38678 116.19841 96.4455 116.76372 C 98.50421 117.32901 101.80566 118.29263 103.86436 118.95538 C 105.92307 119.61813 109.22453 120.75287 111.28325 121.54033 C 113.34196 122.32779 116.64342 123.68001 118.70213 124.63094 C 120.76085 125.58186 124.06232 127.22215 126.12102 128.39403 C 128.17972 129.5659 131.48119 131.5969 133.53989 133.07703 C 135.59859 134.55718 138.90006 137.13243 140.95877 139.06194 C 143.01749 140.99143 146.31894 144.36171 148.37766 146.98349 C 150.43637 149.60529 153.73783 154.18489 155.79654 157.95804 C 157.85526 161.73119 161.15673 168.26425 163.21543 174.17775 C 165.27413 180.09127 168.57559 189.90247 170.6343 200.5785 C 172.693 211.25457 178.05318 251.12326 178.05318 251.12326 "/>
<path transform="matrix(1,0,0,-1,28.359,264.51)" stroke-width="1.19553" stroke-linecap="butt" stroke-miterlimit="10" stroke-linejoin="miter" fill="none" stroke="#800000" d="M 0 90.05577 C 0 90.05577 5.8485 91.67528 8.09476 92.29729 C 10.34102 92.91928 13.94327 93.9168 16.18951 94.5388 C 18.43578 95.1608 22.03802 96.15833 24.28429 96.78033 C 26.53055 97.40234 30.13281 98.39986 32.37906 99.02187 C 34.62532 99.64388 38.22757 100.64137 40.47383 101.26338 C 42.7201 101.88539 46.32234 102.88289 48.56859 103.5049 C 50.81485 104.1269 54.4171 105.12442 56.66336 105.74643 C 58.90962 106.36844 62.51187 107.36594 64.75812 107.98795 C 67.00438 108.60995 70.60663 109.60745 72.85289 110.22946 C 75.09915 110.85147 78.7014 111.84898 80.94765 112.471 C 83.19391 113.093 86.79616 114.0905 89.04242 114.71251 C 91.28868 115.33452 94.89093 116.33202 97.13718 116.95403 C 99.38344 117.57603 102.98569 118.57355 105.23195 119.19556 C 107.47821 119.81757 111.08046 120.81506 113.3267 121.43707 C 115.57297 122.05908 119.17522 123.0566 121.42148 123.6786 C 123.66774 124.30061 127.26999 125.29813 129.51624 125.92012 C 131.7625 126.54213 135.36475 127.53964 137.61101 128.16164 C 139.85727 128.78365 143.45954 129.78118 145.70578 130.40317 C 147.95204 131.02518 151.55429 132.02269 153.80055 132.64469 C 156.04682 133.2667 159.64907 134.2642 161.89531 134.8862 C 164.14157 135.50821 167.74382 136.50574 169.99008 137.12773 C 172.23635 137.74974 175.8386 138.74726 178.08484 139.36925 C 180.3311 139.99126 183.93335 140.98879 186.17961 141.61078 C 188.42588 142.23279 194.27437 143.8523 194.27437 143.8523 "/>
</g>
<path transform="matrix(1,0,0,-1,28.359,264.51)" stroke-width="1" stroke-linecap="butt" stroke-miterlimit="10" stroke-linejoin="miter" fill="none" stroke="#808080" d="M 97.13759 87.92978 L 97.13759 92.18175 M 161.83124 87.92978 L 161.83124 92.18175 "/>
<path transform="matrix(1,0,0,-1,28.359,264.51)" stroke-width="1" stroke-linecap="butt" stroke-miterlimit="10" stroke-linejoin="miter" fill="none" stroke="#808080" d="M -2.12584 116.95415 L 2.12584 116.95415 M -2.12584 170.75092 L 2.12584 170.75092 "/>
<path transform="matrix(1,0,0,-1,28.359,264.51)" stroke-width="1" stroke-linecap="butt" stroke-miterlimit="10" stroke-linejoin="miter" fill="none" stroke="#000000" d="M 0 90.05577 L 192.28185 90.05577 "/>
<path transform="matrix(1,0,0,-1,220.64084,174.45424)" d="M 1.99252 0 L -1.19551 1.59401 L 0 0 L -1.19551 -1.59401 "/>
<path transform="matrix(1,0,0,-1,28.359,264.51)" stroke-width="1" stroke-linecap="butt" stroke-miterlimit="10" stroke-linejoin="miter" fill="none" stroke="#000000" d="M 0 90.05577 L 0 249.45352 "/>
<path transform="matrix(0,-1,-1,-0,28.359,15.056488)" d="M 1.99252 0 L -1.19551 1.59401 L 0 0 L -1.19551 -1.59401 "/>
<symbol id="font_1_1">
<path d="M .33300004 .38900004 C .31500004 .42600004 .286 .45300005 .24100001 .45300005 C .124 .45300005 0 .30600003 0 .16000001 C 0 .06600001 .055000005 0 .133 0 C .153 0 .20300001 .0040000008 .263 .075 C .27100004 .033000005 .30600003 0 .35400004 0 C .38900004 0 .41200004 .023000002 .42800004 .055000005 C .44500003 .091000009 .45800004 .15200001 .45800004 .15400002 C .45800004 .16400002 .44900004 .16400002 .44600005 .16400002 C .43600003 .16400002 .43500004 .16000001 .43200005 .14600002 C .41500003 .081 .397 .022000002 .35600005 .022000002 C .32900004 .022000002 .32600004 .048 .32600004 .068 C .32600004 .09 .32800005 .098000008 .33900003 .14200002 C .35000003 .18400002 .35200004 .19400002 .36100004 .23200003 L .397 .37200005 C .40400005 .40000005 .40400005 .40200005 .40400005 .40600003 C .40400005 .42300005 .39200003 .43300004 .37500004 .43300004 C .35100005 .43300004 .33600004 .411 .33300004 .38900004 M .26800005 .13000001 C .263 .112 .263 .11000001 .24800001 .093 C .20400001 .038000004 .163 .022000002 .135 .022000002 C .08499999 .022000002 .07100001 .077 .07100001 .116000007 C .07100001 .16600001 .103 .28900004 .126 .335 C .157 .39400003 .202 .43100003 .242 .43100003 C .307 .43100003 .32100005 .34900005 .32100005 .34300003 C .32100005 .337 .31900005 .33100004 .31800003 .32600004 L .26800005 .13000001 Z "/>
</symbol>
<use xlink:href="#font_1_1" transform="matrix(9.9626,0,0,-9.9626,123.260509,184.4996)"/>
<symbol id="font_1_3">
<path d="M .305 .31300003 C .311 .33900003 .334 .43100003 .404 .43100003 C .409 .43100003 .433 .43100003 .454 .418 C .426 .41300003 .40600003 .388 .40600003 .36400003 C .40600003 .34800003 .417 .32900004 .444 .32900004 C .46600003 .32900004 .498 .34700004 .498 .38700003 C .498 .43900005 .439 .45300005 .405 .45300005 C .347 .45300005 .312 .40000005 .3 .37700004 C .275 .44300003 .221 .45300005 .19200002 .45300005 C .08800001 .45300005 .031000002 .32400004 .031000002 .29900003 C .031000002 .28900004 .041 .28900004 .043000007 .28900004 C .051000008 .28900004 .054000006 .291 .056 .3 C .09 .40600003 .156 .43100003 .19000001 .43100003 C .209 .43100003 .244 .42200003 .244 .36400003 C .244 .33300004 .22700002 .26600004 .19000001 .126 C .17400001 .064 .13900002 .022000002 .095000009 .022000002 C .08900001 .022000002 .06600001 .022000002 .045 .035 C .07000001 .040000004 .09200001 .061 .09200001 .089 C .09200001 .116000007 .07000001 .124000009 .055000009 .124000009 C .025 .124000009 0 .098000008 0 .06600001 C 0 .020000002 .050000006 0 .094000007 0 C .16000001 0 .19600001 .07000001 .19900002 .076000008 C .21100001 .039 .24700003 0 .307 0 C .41 0 .467 .12900001 .467 .15400002 C .467 .16400002 .458 .16400002 .455 .16400002 C .446 .16400002 .444 .16000001 .442 .15300001 C .409 .046 .341 .022000002 .30900003 .022000002 C .27 .022000002 .254 .054 .254 .08800001 C .254 .11000001 .26 .13200002 .271 .17600002 L .305 .31300003 Z "/>
</symbol>
<use xlink:href="#font_1_3" transform="matrix(9.9626,0,0,-9.9626,187.6299,184.4996)"/>
<symbol id="font_1_2">
<path d="M .314 .605 L .4 .605 C .42000003 .605 .43 .605 .43 .625 C .43 .63600006 .42000003 .63600006 .40300004 .63600006 L .32000003 .63600006 L .34100003 .75 C .34500004 .771 .35900004 .842 .365 .8540001 C .374 .873 .39100004 .888 .41200004 .888 C .416 .888 .44200004 .888 .461 .87 C .41700004 .86600008 .407 .8310001 .407 .816 C .407 .793 .425 .781 .444 .781 C .47 .781 .49900005 .8030001 .49900005 .8410001 C .49900005 .8870001 .45300005 .9100001 .41200004 .9100001 C .37800003 .9100001 .31500004 .8920001 .28500004 .793 C .279 .7720001 .27600003 .7620001 .252 .63600006 L .18300002 .63600006 C .164 .63600006 .15300001 .63600006 .15300001 .61700007 C .15300001 .605 .162 .605 .18100001 .605 L .24700001 .605 L .172 .21000001 C .15400002 .113000009 .13700001 .022 .08500001 .022 C .081 .022 .056 .022 .037 .040000008 C .083000008 .043000014 .09200001 .07900001 .09200001 .094000007 C .09200001 .117000009 .074 .12900001 .055 .12900001 C .029 .12900001 0 .10700001 0 .069000009 C 0 .024000004 .044 0 .08500001 0 C .14 0 .18 .059 .19800002 .09700001 C .23000002 .16000001 .25300003 .28100003 .254 .28800003 L .314 .605 Z "/>
</symbol>
<use xlink:href="#font_1_2" transform="matrix(9.9626,0,0,-9.9626,4.276017,152.09033)"/>
<symbol id="font_2_1">
<path d="M .23200003 .00999999 C .23200003 .012999982 .23200003 .014999986 .215 .03199999 C .09 .15799999 .058 .347 .058 .5 C .058 .674 .096 .84800007 .21900001 .97300007 C .23200003 .985 .23200003 .98700007 .23200003 .99 C .23200003 .99700006 .22800002 1 .222 1 C .21200001 1 .12200001 .93200007 .06299999 .805 C .012000002 .69500008 0 .584 0 .5 C 0 .422 .011 .301 .066 .188 C .126 .065 .21200001 0 .222 0 C .22800002 0 .23200003 .0029999912 .23200003 .00999999 Z "/>
</symbol>
<use xlink:href="#font_2_1" transform="matrix(9.9626,0,0,-9.9626,10.684297,152.53865)"/>
<use xlink:href="#font_1_1" transform="matrix(9.9626,0,0,-9.9626,13.971503,150.1576)"/>
<symbol id="font_2_2">
<path d="M .232 .5 C .232 .578 .22100002 .699 .16600001 .81200006 C .106 .93500009 .020000004 1 .009999998 1 C .0040000008 1 0 .99600008 0 .99 C 0 .98700007 0 .985 .019000002 .967 C .117000009 .86800006 .174 .709 .174 .5 C .174 .329 .137 .153 .012999997 .026999996 C 0 .014999986 0 .012999982 0 .00999999 C 0 .003999993 .0040000008 0 .009999998 0 C .020000004 0 .11000001 .06799999 .169 .195 C .22 .305 .232 .416 .232 .5 Z "/>
</symbol>
<use xlink:href="#font_2_2" transform="matrix(9.9626,0,0,-9.9626,19.406868,152.53865)"/>
<use xlink:href="#font_1_2" transform="matrix(9.9626,0,0,-9.9626,3.849017,98.29435)"/>
<use xlink:href="#font_2_1" transform="matrix(9.9626,0,0,-9.9626,10.256297,98.74266)"/>
<use xlink:href="#font_1_3" transform="matrix(9.9626,0,0,-9.9626,13.433915,96.3616)"/>
<use xlink:href="#font_2_2" transform="matrix(9.9626,0,0,-9.9626,19.406868,98.74266)"/>
<path transform="matrix(1,0,0,-1,28.359,264.51)" d="M 163.82379 170.75092 C 163.82379 171.85138 162.93172 172.74347 161.83124 172.74347 C 160.73078 172.74347 159.83869 171.85138 159.83869 170.75092 C 159.83869 169.65044 160.73078 168.75836 161.83124 168.75836 C 162.93172 168.75836 163.82379 169.65044 163.82379 170.75092 Z M 161.83124 170.75092 " fill="#000080"/>
<path transform="matrix(1,0,0,-1,28.359,264.51)" stroke-width="1" stroke-linecap="butt" stroke-miterlimit="10" stroke-linejoin="miter" fill="none" stroke="#000080" d="M 163.82379 170.75092 C 163.82379 171.85138 162.93172 172.74347 161.83124 172.74347 C 160.73078 172.74347 159.83869 171.85138 159.83869 170.75092 C 159.83869 169.65044 160.73078 168.75836 161.83124 168.75836 C 162.93172 168.75836 163.82379 169.65044 163.82379 170.75092 Z M 161.83124 170.75092 "/>
<path transform="matrix(1,0,0,-1,28.359,264.51)" d="M 99.13014 116.95415 C 99.13014 118.05463 98.23807 118.9467 97.13759 118.9467 C 96.03712 118.9467 95.14503 118.05463 95.14503 116.95415 C 95.14503 115.85368 96.03712 114.9616 97.13759 114.9616 C 98.23807 114.9616 99.13014 115.85368 99.13014 116.95415 Z M 97.13759 116.95415 " fill="#000080"/>
<path transform="matrix(1,0,0,-1,28.359,264.51)" stroke-width="1" stroke-linecap="butt" stroke-miterlimit="10" stroke-linejoin="miter" fill="none" stroke="#000080" d="M 99.13014 116.95415 C 99.13014 118.05463 98.23807 118.9467 97.13759 118.9467 C 96.03712 118.9467 95.14503 118.05463 95.14503 116.95415 C 95.14503 115.85368 96.03712 114.9616 97.13759 114.9616 C 98.23807 114.9616 99.13014 115.85368 99.13014 116.95415 Z M 97.13759 116.95415 "/>
<use xlink:href="#font_1_3" transform="matrix(9.9626,0,0,-9.9626,226.4709,176.69559)"/>
<symbol id="font_1_4">
<path d="M .45700003 .586 C .461 .6 .461 .602 .461 .609 C .461 .62700006 .447 .63600006 .432 .63600006 C .42200003 .63600006 .40600003 .63 .397 .615 C .395 .61 .387 .579 .38300003 .561 C .37600003 .535 .36900003 .508 .363 .48100005 L .318 .301 C .314 .286 .271 .21600002 .20500002 .21600002 C .15400002 .21600002 .143 .26000003 .143 .29700003 C .143 .34300003 .16000001 .40500004 .194 .49300004 C .21000001 .53400006 .21400002 .545 .21400002 .56500008 C .21400002 .61 .18200001 .6470001 .13200002 .6470001 C .037 .6470001 0 .50200006 0 .49300004 C 0 .48300005 .01 .48300005 .012 .48300005 C .022000002 .48300005 .023 .485 .028000003 .50100007 C .055000009 .595 .095000009 .625 .12900001 .625 C .13700001 .625 .15400002 .625 .15400002 .59300008 C .15400002 .568 .14400001 .54200008 .13700001 .523 C .097 .41700004 .079 .36 .079 .31300003 C .079 .224 .142 .194 .201 .194 C .24000003 .194 .274 .21100001 .30200003 .23900002 C .289 .187 .277 .13800001 .237 .08500001 C .21100001 .051 .17300001 .022 .127 .022 C .113000009 .022 .068 .025000006 .051000008 .06400001 C .067 .06400001 .080000009 .06400001 .094000007 .076000008 C .104 .08500001 .11400001 .098000008 .11400001 .117000009 C .11400001 .148 .087000008 .15200001 .07700001 .15200001 C .054000006 .15200001 .021 .136 .021 .087000008 C .021 .037 .065000008 0 .127 0 C .23 0 .333 .091000009 .361 .20400001 L .45700003 .586 Z "/>
</symbol>
<use xlink:href="#font_1_4" transform="matrix(9.9626,0,0,-9.9626,26.026915,9.652349)"/>
</svg>
